<svg width="545" height="551" viewBox="0 0 545 551" fill="none" xmlns="http://www.w3.org/2000/svg">
<path d="M233.992 42.2199C228.018 43.8978 224 49.4289 224 55.6342V55.6342C224 65.2342 233.314 72.0081 242.633 69.7021C265.167 64.126 281.808 63.6977 301.016 68.7105C310.324 71.1398 320 64.6167 320 54.9962V54.9962C320 49.1442 316.281 43.8946 310.675 42.2168C282.62 33.8207 263.136 34.0344 233.992 42.2199Z" fill="#F0B100"/>
<path d="M79.2693 112.092C75.9287 115.463 74 120.103 74 124.849V124.849C74 141.344 94.4657 149.394 106.295 137.9C229.777 17.9173 312.777 19.3827 438.436 138.54C450.507 149.986 471 141.745 471 125.111V125.111C471 120.204 468.976 115.418 465.479 111.976C314.964 -36.165 228.524 -38.52 79.2693 112.092Z" fill="#F0B100"/>
<rect x="399" y="151" width="33" height="156" rx="16.5" fill="#F0B100"/>
<rect x="456" y="168" width="32" height="121" rx="16" fill="#F0B100"/>
<rect x="512" y="184" width="33" height="89" rx="16.5" fill="#F0B100"/>
<rect x="57" y="168" width="33" height="121" rx="16.5" fill="#F0B100"/>
<rect y="184" width="33" height="89" rx="16.5" fill="#F0B100"/>
<rect x="113" y="151" width="33" height="156" rx="16.5" fill="#F0B100"/>
<path d="M272 127C328.333 127 374 172.891 374 229.5C374 286.109 328.333 332 272 332C215.667 332 170 286.109 170 229.5C170 172.891 215.667 127 272 127ZM235.272 181C229.155 181 223.717 184.998 222.113 190.901C214.071 220.511 213.858 240.24 222.103 268.733C223.71 274.289 228.884 278 234.667 278C244.017 278 250.409 268.658 248.072 259.604C242.92 239.642 243.34 222.525 249.024 199.052C251.219 189.99 244.596 181 235.272 181ZM310.324 181C300.733 181 293.952 190.29 296.243 199.604C301.893 222.575 302.322 239.477 297.23 259.045C294.81 268.349 301.343 278 310.957 278C316.833 278 322.101 274.255 323.771 268.621C332.185 240.233 331.969 220.534 323.765 191.041C322.096 185.042 316.551 181 310.324 181ZM273 217C266.373 217 261 222.373 261 229C261 235.627 266.373 241 273 241C279.627 241 285 235.627 285 229C285 222.373 279.627 217 273 217Z" fill="#F0B100"/>
<path d="M157.703 316.5C141.851 316.5 128.663 329.536 132.497 344.918C138.413 368.648 151.67 390.599 171.03 408.07C197.942 432.356 234.441 446 272.5 446C310.559 446 347.058 432.356 373.97 408.07C393.33 390.599 406.587 368.649 412.503 344.918C416.337 329.537 403.149 316.5 387.297 316.5V316.5C371.445 316.5 359.064 329.843 352.842 344.423C348.558 354.461 341.969 363.685 333.378 371.438C317.232 386.009 295.334 394.195 272.5 394.195C249.666 394.195 227.768 386.009 211.622 371.438C203.031 363.685 196.442 354.461 192.158 344.423C185.936 329.843 173.555 316.5 157.703 316.5V316.5Z" fill="#F0B100"/>
<rect x="227" y="419" width="92" height="119" rx="24" fill="#F0B100"/>
<ellipse cx="273" cy="532" rx="97" ry="19" fill="#F0B100"/>
</svg>
